<svg id="Capa_1" data-name="Capa 1" xmlns="http://www.w3.org/2000/svg" viewBox="0 0 900 900"><defs><style>.cls-1{fill:#1660a8;}.cls-2{fill:#f8b01c;}</style></defs><path class="cls-1" d="M295.68,641.83c.91,65.33-48.66,116.27-114.44,114a1.82,1.82,0,0,1-2.06-2q.34-171-.23-341.95c-.22-66,25.82-130.43,70.59-179.31,120.83-131.58,334.18-114,429.66,37.69C773.31,419.8,702,620.81,531.87,673.58q-121.64,37.7-234.14-32.89C296.14,640,295.45,640.23,295.68,641.83ZM602,441.73c20.79-127.92-113.75-224.31-227.73-160.35-38.15,21.47-62.82,53.45-73.56,95.94-3.88,15.3-5.71,40.43-5.48,76.06q.34,89.43-.68,178.86a1.55,1.55,0,0,0,1.6,1.59,1.28,1.28,0,0,0,1.37-1.14c13.7-43.85,44.77-71,90.91-70.81,26.5.23,51.39,9.82,77.21,7.31C534.15,561.88,591,508.43,602,441.73Z"/><circle class="cls-2" cx="449.86" cy="415.46" r="75.15"/></svg>