<?xml version="1.0" encoding="utf-8"?>
<!-- Generator: Adobe Illustrator 24.3.0, SVG Export Plug-In . SVG Version: 6.00 Build 0)  -->
<svg version="1.1" id="Capa_1" xmlns="http://www.w3.org/2000/svg" xmlns:xlink="http://www.w3.org/1999/xlink" x="0px" y="0px"
	 viewBox="0 0 2471.7 889.7" style="enable-background:new 0 0 2471.7 889.7;" xml:space="preserve">
<style type="text/css">
	.st0{fill:#FFFFFF;}
	.st1{fill:#F8B01C;}
	.st2{enable-background:new    ;}
</style>
<path class="st0" d="M338.8,636.7c0.9,65.3-48.6,116.3-114.4,114c-1,0.1-1.9-0.5-2.1-1.5c0-0.2,0-0.3,0-0.5c0.2-114,0.2-228-0.2-342
	c-0.2-66,25.8-130.4,70.6-179.3c120.8-131.6,334.2-114,429.7,37.6c94.1,149.7,22.8,350.7-147.4,403.4
	c-81.1,25.1-159.1,14.2-234.1-32.9C339.3,634.9,338.6,635.1,338.8,636.7z M645.2,436.6c20.8-127.9-113.8-224.3-227.7-160.4
	c-38.1,21.5-62.8,53.5-73.6,95.9c-3.9,15.3-5.7,40.4-5.5,76.1c0.2,59.6,0,119.2-0.7,178.9c0,0.9,0.7,1.6,1.5,1.6c0,0,0.1,0,0.1,0
	c0.7,0.1,1.3-0.5,1.4-1.1c13.7-43.9,44.8-71,90.9-70.8c26.5,0.2,51.4,9.8,77.2,7.3C577.3,556.7,634.2,503.3,645.2,436.6z"/>
<path class="st1" d="M2249.6,436.4c0.4,65.6-55.5,118.8-124.7,119.2s-125.6-52.3-125.9-117.9l0,0c-0.2-65.6,55.5-118.8,124.7-119.2
	S2249.3,370.8,2249.6,436.4L2249.6,436.4z M2122.6,510.6c39.8,0.9,72.6-31.3,73.8-72l0,0c0.9-40.7-30.4-74.5-70.1-75.4
	s-72.6,31.3-73.8,72l0,0C2051.6,475.9,2082.9,509.5,2122.6,510.6L2122.6,510.6z"/>
<path class="st0" d="M923.6,490.5l0.5,58.2c0,1.1-0.8,2-1.9,2.1c0,0-0.1,0-0.1,0h-48.4c-1,0.1-1.9-0.5-2.1-1.5c0-0.2,0-0.3,0-0.5
	V325.4c0-1.1,0.5-1.6,1.6-1.6c38.4-0.2,76.8-0.2,114.7,0.5c16.9,0.2,44.5,12.1,57.3,24.7c36.6,36.1,30.4,102.8-18,127.2
	c-30.6,15.5-66.9,12.3-101,12.1c-1.1-0.3-2.2,0.3-2.5,1.4C923.6,489.9,923.5,490.2,923.6,490.5z M923.6,366.9l0.2,77
	c0,0.6,0.5,1.1,1.1,1.1c0,0,0.1,0,0.1,0l48.9-0.2c23.1,0,41.8-17.1,41.8-37.9l0,0v-3.6c0-20.8-19-37.7-42-37.7l-48.9,0.2
	C924.2,365.8,923.7,366.3,923.6,366.9L923.6,366.9z"/>
<path class="st0" d="M1243.6,501.2l-103.7,0.5c-0.5,0-1,0.4-1.1,0.9l-19.7,47.3c-0.2,0.5-0.6,0.8-1.1,0.9h-51.2
	c-0.7-0.1-1.3-0.6-1.4-1.4V549l100.3-224.8c0.2-0.4,0.7-0.7,1.1-0.7h50.7c0.5,0,0.9,0.3,1.1,0.7L1319.2,549c0.2,0.7,0,1.5-0.7,1.8
	h-53c-0.5,0-1.1-0.2-1.1-0.9l-19.4-48C1244.7,501.4,1244.2,501.2,1243.6,501.2z M1156.6,460.1c-0.3,0.7,0,1.5,0.7,1.8h68.7
	c0.7,0,1.3-0.6,1.4-1.4v-0.5l-34-82.2c-0.3-0.7-1.1-1-1.8-0.7l-0.7,0.7L1156.6,460.1z"/>
<path class="st0" d="M1455.1,323.3h48.4c0.7,0.1,1.3,0.6,1.4,1.4c0,0.3-0.1,0.5-0.2,0.7l-87,144.8c-0.2,0.2-0.3,0.4-0.2,0.7
	l0.2,78.4c0,0.7-0.6,1.3-1.4,1.4h-49.6c-0.7,0-1.3-0.6-1.4-1.4l0,0v-79c0-0.3-0.1-0.5-0.2-0.7l-86.8-144.1c-0.4-0.6-0.3-1.3,0.3-1.7
	c0.1,0,0.1-0.1,0.2-0.1c0.2-0.2,0.4-0.3,0.7-0.2h53c0.5,0,0.9,0.3,1.1,0.7l58.9,98.5c0.3,0.6,1.1,0.9,1.7,0.5c0.1,0,0.1-0.1,0.2-0.1
	c0.2,0,0.2-0.2,0.5-0.5l59.4-98.7C1454.2,323.5,1454.7,323.3,1455.1,323.3z"/>
<path class="st1" d="M1597.2,487.8c-3.4,0-5,1.8-5,5.3l0.7,55.7c0,1.1-0.8,2-1.9,2.1c0,0-0.1,0-0.1,0l0,0l-48.4,0.2
	c-1,0.1-1.9-0.5-2.1-1.5c0-0.2,0-0.3,0-0.5V325.4c-0.1-1,0.5-1.9,1.5-2.1c0.2,0,0.3,0,0.5,0c34.7-0.2,69.4,0,103.9,0.5
	c41.1,0.7,78.1,19.4,88.2,62.1c10.7,44.5-11.7,83.8-54.1,96.6C1657.3,489.6,1624,487.5,1597.2,487.8z M1592,371.3l0.2,69
	c-0.1,2.9,2.2,5.2,5.1,5.3c0.1,0,0.1,0,0.2,0l0,0l46.1-0.2c23.1-0.2,41.8-17.8,41.8-39.5v-0.9c0-21.7-19-39.3-42.3-39.1l0,0
	L1597,366C1594.2,366.1,1591.9,368.4,1592,371.3C1592,371.2,1592,371.2,1592,371.3L1592,371.3z"/>
<path class="st1" d="M1827,490.3l-0.2,56.6c0,2-1.6,3.6-3.6,3.7c0,0-0.1,0-0.1,0l-45.9,0.2c-1.1,0-2.1-0.9-2.1-2c0,0,0,0,0,0V326.3
	c0-1.6,0.7-2.5,2.3-2.5c57.3-0.7,94.6-0.7,111.9,0.2c49.8,2.5,88,39.1,82.5,90.9c-3.2,29.2-17.6,49.8-43.6,61.7
	c-1.3,0.6-1.9,2.1-1.4,3.4c0,0.2,0.2,0.2,0.2,0.5l47.5,67.8c0.5,0.7,0.4,1.7-0.3,2.2c0,0-0.1,0.1-0.1,0.1c-0.3,0.2-0.6,0.3-0.9,0.2
	H1922c-1.3,0-2.5-0.7-3.2-1.8l-38.8-57.1c-1.8-2.8-5.1-4.5-8.4-4.3l-41.8,0.2C1828.3,487.7,1827.1,488.8,1827,490.3
	C1827,490.2,1827,490.2,1827,490.3z M1827.2,367.4v76.5c0,0.9,0.7,1.6,1.5,1.6c0,0,0,0,0.1,0h47.5c23.8,0,43-16.7,43-37.2l0,0V403
	c0-20.6-19.2-37.2-43-37.2h-47.5C1828,365.8,1827.3,366.5,1827.2,367.4L1827.2,367.4z"/>
<circle class="st1" cx="493" cy="410.3" r="75.1"/>
<g class="st2">
	<path class="st0" d="M1172.4,583.2v69.1h-5v-32.9h-46.2v32.9h-5v-69.1h5V615h46.2v-31.8H1172.4z"/>
	<path class="st0" d="M1235.1,648.1c-5.5-3.1-9.8-7.3-12.9-12.6c-3.1-5.3-4.7-11.3-4.7-17.9c0-6.6,1.6-12.5,4.7-17.9
		c3.1-5.3,7.4-9.5,12.9-12.6c5.5-3.1,11.6-4.6,18.3-4.6c6.8,0,12.9,1.5,18.3,4.5c5.5,3,9.8,7.2,12.9,12.5c3.1,5.3,4.7,11.3,4.7,18
		c0,6.6-1.6,12.6-4.7,18c-3.1,5.3-7.4,9.5-12.9,12.5c-5.5,3-11.6,4.5-18.3,4.5C1246.6,652.7,1240.5,651.2,1235.1,648.1z
		 M1269.1,644.2c4.7-2.6,8.4-6.3,11-10.9c2.7-4.6,4-9.8,4-15.5s-1.3-10.9-4-15.5c-2.7-4.6-6.4-8.3-11-10.9
		c-4.7-2.6-9.9-3.9-15.7-3.9c-5.8,0-11,1.3-15.7,3.9c-4.7,2.6-8.4,6.3-11.1,10.9c-2.7,4.6-4,9.8-4,15.5s1.3,10.9,4,15.5
		c2.7,4.6,6.4,8.3,11.1,10.9c4.7,2.6,9.9,3.9,15.7,3.9C1259.2,648.1,1264.4,646.8,1269.1,644.2z"/>
	<path class="st0" d="M1390.6,583.2v69.1h-4.1l-47.1-60v60h-5v-69.1h4.2l47,60v-60H1390.6z"/>
	<path class="st0" d="M1442.3,583.2h27.3c7.2,0,13.5,1.5,19.1,4.4c5.6,3,9.9,7.1,13,12.3c3.1,5.2,4.6,11.2,4.6,17.8
		c0,6.6-1.5,12.6-4.6,17.8c-3.1,5.2-7.4,9.3-13,12.3c-5.6,3-11.9,4.4-19.1,4.4h-27.3V583.2z M1469.3,647.7c6.4,0,12-1.3,16.9-3.8
		c4.9-2.5,8.6-6.1,11.2-10.6c2.6-4.5,3.9-9.7,3.9-15.6c0-5.9-1.3-11-3.9-15.6c-2.6-4.5-6.4-8.1-11.2-10.6
		c-4.9-2.5-10.5-3.8-16.9-3.8h-21.9v60H1469.3z"/>
	<path class="st0" d="M1558.1,645.1c-4.8-5.1-7.3-12.5-7.3-22.2v-39.8h5v39.6c0,8.5,1.9,14.8,5.8,19c3.9,4.2,9.5,6.3,16.9,6.3
		c7.3,0,12.9-2.1,16.8-6.3c3.9-4.2,5.8-10.6,5.8-19v-39.6h5v39.8c0,9.7-2.4,17.1-7.3,22.2c-4.9,5.1-11.7,7.6-20.4,7.6
		C1569.7,652.7,1562.9,650.2,1558.1,645.1z"/>
	<path class="st0" d="M1705.2,652.2l-16.5-23.1c-2.4,0.3-4.7,0.5-6.7,0.5h-19.7v22.6h-5v-69.1h24.8c8.7,0,15.5,2.1,20.4,6.2
		c4.9,4.1,7.4,9.8,7.4,17.1c0,5.5-1.4,10-4.2,13.8c-2.8,3.7-6.8,6.3-12,7.8l17.3,24.2H1705.2z M1682,625.2c7.4,0,13-1.6,16.9-4.9
		c3.9-3.3,5.8-7.9,5.8-13.9c0-6-1.9-10.6-5.8-13.9c-3.9-3.3-9.5-4.9-16.9-4.9h-19.7v37.5H1682z"/>
	<path class="st0" d="M1798.6,632.8h-40.1l-8.8,19.4h-5.4l31.8-69.1h5l31.8,69.1h-5.4L1798.6,632.8z M1796.8,628.6l-18.2-39.9
		l-18.1,39.9H1796.8z"/>
	<path class="st0" d="M1856.8,650.1c-4.6-1.7-8.1-4-10.7-6.8l2.3-3.7c2.4,2.6,5.7,4.7,9.8,6.3c4.1,1.6,8.4,2.4,13,2.4
		c6.6,0,11.5-1.2,14.9-3.7c3.4-2.5,5-5.8,5-9.8c0-3.1-0.9-5.6-2.7-7.4c-1.8-1.8-4-3.3-6.6-4.2c-2.6-1-6.2-2-10.7-3.1
		c-5.1-1.2-9.1-2.5-12.2-3.6c-3.1-1.2-5.7-3-7.8-5.5c-2.1-2.5-3.2-5.8-3.2-9.9c0-3.4,0.9-6.4,2.7-9.2c1.8-2.8,4.5-5,8.1-6.7
		c3.6-1.6,8.2-2.5,13.7-2.5c3.8,0,7.6,0.6,11.2,1.7c3.7,1.1,6.9,2.6,9.6,4.5l-1.9,4c-2.8-1.9-5.8-3.4-9.1-4.3
		c-3.3-1-6.6-1.5-9.8-1.5c-6.4,0-11.2,1.3-14.5,3.8c-3.3,2.6-4.9,5.9-4.9,10c0,3.1,0.9,5.6,2.7,7.4c1.8,1.8,4,3.3,6.6,4.2
		c2.6,1,6.2,2,10.8,3.2c5.1,1.3,9.1,2.5,12.1,3.7c3,1.2,5.6,3,7.7,5.4c2.1,2.4,3.2,5.6,3.2,9.7c0,3.4-0.9,6.4-2.7,9.2
		c-1.8,2.8-4.6,5-8.3,6.6c-3.7,1.6-8.4,2.5-13.8,2.5C1866.2,652.7,1861.4,651.9,1856.8,650.1z"/>
</g>
</svg>
